<svg id="Group_6922" data-name="Group 6922" xmlns="http://www.w3.org/2000/svg" width="19.412" height="17.471" viewBox="0 0 19.412 17.471">
  <path id="Path_8" data-name="Path 8" d="M2.718,0H17.082a2.512,2.512,0,0,1,2.329,2.718V14.753a2.512,2.512,0,0,1-2.329,2.718H2.718A2.835,2.835,0,0,1,0,14.753V2.718A2.835,2.835,0,0,1,2.718,0Z" fill="#e5ce3c"/>
  <g id="royal-crown" transform="translate(3.494 2.718)">
    <path id="Path_6" data-name="Path 6" d="M130.143,808.64a.859.859,0,0,0-.776-.776H121.6a.776.776,0,0,0,0,1.553h7.765A.86.86,0,0,0,130.143,808.64Z" transform="translate(-119.272 -798.934)" fill="#fefeff"/>
    <path id="Path_7" data-name="Path 7" d="M.535,68.518c.011,0-.011,0,0,0L1.7,72.4H9.853l1.165-3.882h0a.776.776,0,1,0-.776-.776c0,.086-.026-.078,0,0L8.3,68.906,6.359,65.412c.217-.144.388-.109.388-.388a.776.776,0,0,0-1.553,0c0,.281.17.244.388.388L3.253,68.906,1.312,67.742c.025-.078,0,.086,0,0a.758.758,0,0,0-.776-.776.776.776,0,0,0,0,1.553Z" transform="translate(0.241 -64.248)" fill="#fefeff"/>
  </g>
</svg>
