<svg xmlns="http://www.w3.org/2000/svg" width="47.158" height="41.137" viewBox="0 0 47.158 41.137">
  <g id="Group_6917" data-name="Group 6917" transform="translate(0.25 0.25)">
    <g id="Group_1237" data-name="Group 1237">
      <path id="Path_2571" data-name="Path 2571" d="M2.769,80.8c.043,0-.043,0,0,0L7.284,95.855H38.891L43.406,80.8h0a3.01,3.01,0,1,0-3.01-3.01c0,.334-.1-.3,0,0l-7.526,4.515L25.345,68.763c.84-.558,1.505-.422,1.505-1.505a3.01,3.01,0,0,0-6.02,0c0,1.087.661.947,1.505,1.505L13.3,82.309,5.779,77.793c.1-.3,0,.334,0,0a2.937,2.937,0,0,0-3.01-3.01,3.01,3.01,0,0,0,0,6.02Z" transform="translate(0.241 -64.247)" fill="#fff" stroke="#e6be3a" stroke-width="0.5"/>
      <path id="Path_2570" data-name="Path 2570" d="M156.948,810.873a3.33,3.33,0,0,0-3.01-3.01h-30.1a3.01,3.01,0,0,0,0,6.02h30.1A3.335,3.335,0,0,0,156.948,810.873Z" transform="translate(-115.571 -773.247)" fill="#fff" stroke="#e6be3a" stroke-width="0.5"/>
    </g>
  </g>
</svg>
