<svg id="Group_6572" data-name="Group 6572" xmlns="http://www.w3.org/2000/svg" width="34" height="32.225" viewBox="0 0 34 32.225">
  <path id="Path_18777" data-name="Path 18777" d="M120.841,258.935a.693.693,0,0,0-.693-.693h-2.419a.693.693,0,0,0-.693.693v2.419a.693.693,0,0,0,.693.693h2.419a.693.693,0,0,0,.693-.693v-2.419Z" transform="translate(-110.05 -242.082)" fill="#b1b1b1"/>
  <path id="Path_18778" data-name="Path 18778" d="M217.475,258.935a.693.693,0,0,0-.693-.693h-2.42a.693.693,0,0,0-.693.693v2.419a.693.693,0,0,0,.693.693h2.42a.693.693,0,0,0,.693-.693Z" transform="translate(-200.638 -242.082)" fill="#b1b1b1"/>
  <path id="Path_18779" data-name="Path 18779" d="M314.1,258.935a.693.693,0,0,0-.693-.693h-2.419a.693.693,0,0,0-.693.693v2.419a.693.693,0,0,0,.693.693h2.419a.693.693,0,0,0,.693-.693Z" transform="translate(-291.298 -242.082)" fill="#b1b1b1"/>
  <path id="Path_18780" data-name="Path 18780" d="M120.841,355.568a.693.693,0,0,0-.693-.693h-2.419a.693.693,0,0,0-.693.693v2.419a.693.693,0,0,0,.693.693h2.419a.693.693,0,0,0,.693-.693v-2.419Z" transform="translate(-110.05 -332.668)" fill="#b1b1b1"/>
  <path id="Path_18781" data-name="Path 18781" d="M217.475,355.568a.693.693,0,0,0-.693-.693h-2.42a.693.693,0,0,0-.693.693v2.419a.693.693,0,0,0,.693.693h2.42a.693.693,0,0,0,.693-.693Z" transform="translate(-200.638 -332.668)" fill="#b1b1b1"/>
  <path id="Path_18783" data-name="Path 18783" d="M32.621,54.155v3.7A3.018,3.018,0,0,1,29.6,60.866H27.688a3.033,3.033,0,0,1-3.043-3.016V54.142h-8.6V57.85A3.033,3.033,0,0,1,13,60.866H11.094A3.018,3.018,0,0,1,8.07,57.85v-3.7a2.75,2.75,0,0,0-2.659,2.736V78.546A2.752,2.752,0,0,0,8.149,81.3H32.542a2.755,2.755,0,0,0,2.738-2.754V56.891A2.75,2.75,0,0,0,32.621,54.155ZM31.735,77.2a1.184,1.184,0,0,1-1.184,1.184H10.087A1.184,1.184,0,0,1,8.9,77.2V66.012a1.184,1.184,0,0,1,1.184-1.184H30.551a1.184,1.184,0,0,1,1.184,1.184V77.2Z" transform="translate(-5.411 -50.754)" fill="#b1b1b1"/>
  <path id="Path_18784" data-name="Path 18784" d="M80.587,8.131h1.887a1.037,1.037,0,0,0,1.037-1.037V1.037A1.037,1.037,0,0,0,82.475,0H80.587A1.037,1.037,0,0,0,79.55,1.037V7.095A1.037,1.037,0,0,0,80.587,8.131Z" transform="translate(-74.911)" fill="#b1b1b1"/>
  <path id="Path_18785" data-name="Path 18785" d="M345.5,8.131h1.887a1.037,1.037,0,0,0,1.037-1.037V1.037A1.037,1.037,0,0,0,347.383,0H345.5a1.037,1.037,0,0,0-1.037,1.037V7.095A1.037,1.037,0,0,0,345.5,8.131Z" transform="translate(-323.242)" fill="#b1b1b1"/>
  <circle id="Ellipse_134" data-name="Ellipse 134" cx="5.5" cy="5.5" r="5.5" transform="translate(23 21.225)" fill="#fff"/>
  <path id="Path_18787" data-name="Path 18787" d="M35.259,7.109A3.118,3.118,0,0,0,34.937.894V.055a.06.06,0,0,0-.1-.042L33.113,1.281a.053.053,0,0,0,0,.086l1.727,1.268a.061.061,0,0,0,.1-.042V1.756a2.258,2.258,0,1,1-2.266,2.618.429.429,0,0,0-.849.13A3.122,3.122,0,0,0,35.259,7.109Z" transform="translate(-6.367 23)" fill="#ff753a"/>
</svg>
