<svg id="Group_6918" data-name="Group 6918" xmlns="http://www.w3.org/2000/svg" width="20.15" height="37.415" viewBox="0 0 20.15 37.415">
  <circle id="Ellipse_29" data-name="Ellipse 29" cx="3.927" cy="3.927" r="3.927" transform="translate(6.279)" fill="#31ce31"/>
  <path id="Path_5" data-name="Path 5" d="M34.03,21.956a27.143,27.143,0,0,1-7.888-6.762c-1.262-1.774-4.279-1.626-5.635,0-2.062,2.006-4.247,3.566-5.635,5.635-.567.848.28,1.687,1.127,2.254.316.212.773,1.127,1.127,1.127.595,0,.771-.6,1.127-1.127.609-.907,1.489-1.348,2.254-2.254-.029,1.918-.048,5.206,0,6.762.016.518.241.667,0,1.127A59.136,59.136,0,0,0,16,39.987a1.682,1.682,0,0,0,1.127,2.254c.232.068-.227.017,0,0,.781-.06,2.02-.332,2.254-1.127a54.636,54.636,0,0,1,4.508-10.142c.087,0-.089,0,0,0,1.1,3.274,2.282,6.868,3.381,10.142.8,2.386,4.181.133,3.381-2.254-1.2-3.579-2.184-6.563-3.381-10.142a9.187,9.187,0,0,1,0-1.127c-.2-2.2-1.148-4.561-1.127-6.762a30.806,30.806,0,0,0,5.635,4.508C33.846,26.538,36.072,23.14,34.03,21.956Z" transform="translate(-14.688 -4.86)" fill="#31ce31"/>
</svg>
