<svg xmlns="http://www.w3.org/2000/svg" width="19.837" height="33.508" viewBox="0 0 19.837 33.508">
  <g id="mother-walking-with-her-son-on-a-stroller" transform="translate(0 -18.163)">
    <g id="Group_6587" data-name="Group 6587" transform="translate(0.001 18.163)">
      <circle id="Ellipse_740" data-name="Ellipse 740" cx="2.299" cy="2.299" r="2.299" transform="translate(7.223 0)" fill="#ee4fb9"/>
      <path id="Path_18908" data-name="Path 18908" d="M2.386,134.785l4.971-6.932a1.317,1.317,0,0,0,.246-.767v-2.851h.644l3.32,10.191a1.316,1.316,0,0,0,2.5-.815l-3.054-9.375h2.046a.366.366,0,0,0,.364-.541L10.2,115.784a1.548,1.548,0,0,1,.024-1.073l1.3-2.829.927,1.9a1.312,1.312,0,0,0,.435.52l4.946,3.484a1.316,1.316,0,0,0,1.833-.318,1.355,1.355,0,0,0,.077-.137,2.053,2.053,0,0,0-.038-1.32,1.307,1.307,0,0,0-.357-.377l-4.659-3.282-2.117-4.311a1.31,1.31,0,0,0-1.142-.753.2.2,0,0,0-.031-.007H6.628a.55.55,0,0,0-.553.584l.369,6.8a2.513,2.513,0,0,1-.24,1.1l-4.177,7.955a.325.325,0,0,0,.313.518H4.971v2.428L.247,133.251a1.316,1.316,0,0,0,2.139,1.533Z" transform="translate(-0.001 -101.826)" fill="#ee4fb9"/>
    </g>
  </g>
</svg>
