<svg xmlns="http://www.w3.org/2000/svg" width="6.909" height="9.722" viewBox="0 0 6.909 9.722">
  <path id="Path_21498" data-name="Path 21498" d="M21.319,16.674a9.306,9.306,0,0,1-2.7-2.318,1.285,1.285,0,0,0-1.932,0,13.934,13.934,0,0,0-1.932,1.932c-.195.291.1.578.386.773.108.073.265.386.386.386.2,0,.264-.2.386-.386.209-.311.51-.462.773-.773-.01.657-.017,1.785,0,2.318.006.178.082.229,0,.386a20.274,20.274,0,0,0-1.545,3.864.577.577,0,0,0,.386.773c.08.023-.078.006,0,0,.268-.021.693-.114.773-.386a18.732,18.732,0,0,1,1.545-3.477c.03,0-.03,0,0,0,.376,1.122.782,2.355,1.159,3.477.274.818,1.433.046,1.159-.773-.412-1.227-.749-2.25-1.159-3.477a3.149,3.149,0,0,1,0-.386c-.068-.756-.394-1.564-.386-2.318a10.562,10.562,0,0,0,1.932,1.545C21.256,18.245,22.019,17.08,21.319,16.674Z" transform="translate(-14.688 -13.918)" fill="#fefefe"/>
</svg>
