<svg xmlns="http://www.w3.org/2000/svg" width="11.624" height="11.624" viewBox="0 0 11.624 11.624">
  <path id="refer" d="M5.695,6.173l.116,0,.108,0A5,5,0,0,1,8.238,6.8a.454.454,0,0,0,.442-.794,5.863,5.863,0,0,0-1.02-.446,3.088,3.088,0,1,0-3.7,0,5.9,5.9,0,0,0-3.935,4.4,1.379,1.379,0,0,0,1.348,1.664H4.925a.454.454,0,0,0,0-.908H1.377a.461.461,0,0,1-.363-.173.474.474,0,0,1-.1-.4A5.017,5.017,0,0,1,5.695,6.173ZM3.631,3.088A2.179,2.179,0,1,1,5.919,5.265H5.7A2.182,2.182,0,0,1,3.631,3.088Zm7.991,5.354a1.122,1.122,0,0,1-.334.8l-.845.84a.454.454,0,1,1-.64-.644l.566-.563H7.8a.919.919,0,0,0-.011,1.838.454.454,0,1,1,0,.908A1.8,1.8,0,0,1,6.5,11.087,1.831,1.831,0,0,1,7.8,7.97h2.531L9.8,7.452a.454.454,0,1,1,.639-.646l.843.834a1.122,1.122,0,0,1,.336.8Zm0,0" transform="translate(0.001 0)" fill="#fff"/>
</svg>
