<svg id="Group_6751" data-name="Group 6751" xmlns="http://www.w3.org/2000/svg" width="35" height="35.768" viewBox="0 0 35 35.768">
  <g id="Group_6621" data-name="Group 6621" transform="translate(0 0)">
    <g id="Group_6739" data-name="Group 6739">
      <g id="Group_6738" data-name="Group 6738">
        <path id="Subtraction_5" data-name="Subtraction 5" d="M23.4,35.768H0V0H29.279V20.329h-2.1V2.1H20.9V7.009H8.375V2.1H2.1V33.672H23.4v2.1ZM10.471,2.1V4.913h8.337V2.1ZM23.209,30.3H10.366V28.2H23.209v2.1Zm-14.938,0H6.07V28.2h2.2v2.1Zm14.938-4.471H10.366v-2.1H23.209v2.1Zm-14.938,0H6.07v-2.1h2.2v2.1Zm14.938-4.471H10.366v-2.1H23.209v2.1Zm-14.938,0H6.07v-2.1h2.2v2.1Z" fill="#b1b1b1"/>
        <g id="Group_6737" data-name="Group 6737" transform="translate(24.236 22.001)">
          <g id="nurse_1_" data-name="nurse (1)" transform="translate(0 0)">
            <g id="Group_6736" data-name="Group 6736">
              <g id="Group_6744" data-name="Group 6744">
                <path id="Path_21490" data-name="Path 21490" d="M139.418,16.045a2.524,2.524,0,1,0-2.618-2.524A2.575,2.575,0,0,0,139.418,16.045Z" transform="translate(-134.037 -11)" fill="#b1b1b1"/>
                <path id="Path_21491" data-name="Path 21491" d="M18.448,268.557h-.615v.593a.448.448,0,1,1-.9,0v-.593h-.615a.448.448,0,0,1,0-.9h.615v-.591a.448.448,0,0,1,.9,0v.591h.615a.448.448,0,0,1,0,.9Zm-.505-3.457a3.566,3.566,0,0,1-3.123,0A5.028,5.028,0,0,0,11,269.834a.447.447,0,0,0,.448.448h9.867a.447.447,0,0,0,.448-.448A5.028,5.028,0,0,0,17.943,265.1Z" transform="translate(-11 -259.519)" fill="#b1b1b1"/>
              </g>
            </g>
          </g>
        </g>
      </g>
    </g>
  </g>
  <path id="Subtraction_2" data-name="Subtraction 2" d="M4.476,8.953A4.434,4.434,0,0,1,1.3,7.654,4.232,4.232,0,0,1,0,4.476,4.341,4.341,0,0,1,1.3,1.3,4.232,4.232,0,0,1,4.476,0,4.433,4.433,0,0,1,7.654,1.3a4.636,4.636,0,0,1,.724.926H7.185c-.076-.087-.159-.172-.246-.254A3.449,3.449,0,0,0,4.432.9,3.4,3.4,0,0,0,1.925,1.97,3.45,3.45,0,0,0,.851,4.476,3.846,3.846,0,0,0,1.925,6.983,3.451,3.451,0,0,0,4.432,8.057a3.407,3.407,0,0,0,2.4-.964H8.121a5.382,5.382,0,0,1-.466.56A4.232,4.232,0,0,1,4.476,8.953Zm1.88-2.641h0L4.029,4.879V2.193H4.7V4.521L6.714,5.73l-.358.582Z" transform="translate(10.886 9.069)" fill="#b1b1b1"/>
</svg>
