<svg id="Group_6749" data-name="Group 6749" xmlns="http://www.w3.org/2000/svg" width="34.999" height="35.767" viewBox="0 0 34.999 35.767">
  <g id="Group_6748" data-name="Group 6748" transform="translate(10.365 8.804)">
    <circle id="Ellipse_751" data-name="Ellipse 751" cx="4.54" cy="4.54" r="4.54" transform="translate(0 0)" fill="#b1b1b1"/>
    <path id="path" d="M263.72,877.666l3.067-3.067.405.405-3.472,3.472-1.62-1.62.405-.405Z" transform="translate(-260.205 -871.655)" fill="#fff"/>
  </g>
  <g id="Group_6747" data-name="Group 6747" transform="translate(0 0)">
    <g id="Group_6739" data-name="Group 6739">
      <g id="Group_6738" data-name="Group 6738">
        <path id="Subtraction_5" data-name="Subtraction 5" d="M23.4,35.767H0V0H29.278V20.328h-2.1V2.1H20.9V7.009H8.375V2.1H2.1V33.671H23.4v2.1ZM10.471,2.1V4.913h8.336V2.1Zm12.737,28.2H10.366V28.2H23.208v2.1Zm-14.938,0H6.07V28.2h2.2v2.1Zm14.938-4.471H10.366v-2.1H23.208v2.1Zm-14.938,0H6.07v-2.1h2.2v2.1Zm14.938-4.471H10.366v-2.1H23.208v2.1Zm-14.938,0H6.07v-2.1h2.2v2.1Z" fill="#b1b1b1"/>
        <g id="Group_6737" data-name="Group 6737" transform="translate(24.236 22)">
          <g id="nurse_1_" data-name="nurse (1)" transform="translate(0 0)">
            <g id="Group_6736" data-name="Group 6736" transform="translate(0 0)">
              <g id="Group_6744" data-name="Group 6744">
                <path id="Path_21490" data-name="Path 21490" d="M139.418,16.045a2.524,2.524,0,1,0-2.618-2.524A2.575,2.575,0,0,0,139.418,16.045Z" transform="translate(-134.037 -11)" fill="#b1b1b1"/>
                <path id="Path_21491" data-name="Path 21491" d="M18.448,268.557h-.615v.593a.448.448,0,0,1-.9,0v-.593h-.615a.448.448,0,0,1,0-.9h.615v-.591a.448.448,0,0,1,.9,0v.591h.615a.448.448,0,0,1,0,.9Zm-.505-3.457a3.566,3.566,0,0,1-3.123,0A5.027,5.027,0,0,0,11,269.833a.447.447,0,0,0,.448.448h9.867a.447.447,0,0,0,.448-.448A5.027,5.027,0,0,0,17.943,265.1Z" transform="translate(-11 -259.519)" fill="#b1b1b1"/>
              </g>
            </g>
          </g>
        </g>
      </g>
    </g>
  </g>
</svg>
