<svg id="Group_6754" data-name="Group 6754" xmlns="http://www.w3.org/2000/svg" width="29.566" height="30.215" viewBox="0 0 29.566 30.215">
  <g id="Group_6620" data-name="Group 6620" transform="translate(0 0)">
    <g id="Group_6739" data-name="Group 6739">
      <g id="Group_6738" data-name="Group 6738">
        <path id="Subtraction_5" data-name="Subtraction 5" d="M19.77,30.215H0V0H24.733V17.173h-1.77V1.77h-5.3V5.921H7.075V1.77H1.77V28.444h18v1.77ZM8.846,1.77v2.38h7.042V1.77Zm10.76,23.822H8.757v-1.77H19.606v1.77Zm-12.619,0H5.128v-1.77H6.987v1.77Zm12.619-3.777H8.757v-1.77H19.606v1.77Zm-12.619,0H5.128v-1.77H6.987v1.77Zm12.619-3.777H8.757v-1.77H19.606v1.77Zm-12.619,0H5.128v-1.77H6.987v1.77Z" fill="#b1b1b1"/>
        <g id="Group_6737" data-name="Group 6737" transform="translate(20.474 18.585)">
          <g id="nurse_1_" data-name="nurse (1)" transform="translate(0 0)">
            <g id="Group_6736" data-name="Group 6736">
              <g id="Group_6744" data-name="Group 6744">
                <path id="Path_21490" data-name="Path 21490" d="M139.012,15.262A2.133,2.133,0,1,0,136.8,13.13,2.175,2.175,0,0,0,139.012,15.262Z" transform="translate(-134.466 -11)" fill="#b1b1b1"/>
                <path id="Path_21491" data-name="Path 21491" d="M17.292,268.021h-.52v.5a.379.379,0,0,1-.757,0v-.5H15.5a.379.379,0,1,1,0-.757h.52v-.5a.379.379,0,0,1,.757,0v.5h.52a.379.379,0,1,1,0,.757Zm-.427-2.921a3.012,3.012,0,0,1-2.639,0,4.247,4.247,0,0,0-3.227,4,.378.378,0,0,0,.379.379h8.335a.378.378,0,0,0,.379-.379A4.247,4.247,0,0,0,16.865,265.1Z" transform="translate(-11 -260.385)" fill="#b1b1b1"/>
              </g>
            </g>
          </g>
        </g>
      </g>
    </g>
  </g>
  <path id="path" d="M3.1,2.141A3.652,3.652,0,0,1,5.8,1a3.83,3.83,0,0,1,2.7,1.1,3.616,3.616,0,0,1,1.1,2.7,3.765,3.765,0,0,1-1.1,2.7,3.616,3.616,0,0,1-2.7,1.1A3.767,3.767,0,0,1,2,4.8,3.678,3.678,0,0,1,3.1,2.141ZM6.185,5.185V2.9H5.424V5.185Zm0,1.522V5.946H5.424v.761Z" transform="translate(6.845 6.672)" fill="#b1b1b1"/>
</svg>
