<svg id="Group_6755" data-name="Group 6755" xmlns="http://www.w3.org/2000/svg" width="27.398" height="28" viewBox="0 0 27.398 28">
  <circle id="Ellipse_741" data-name="Ellipse 741" cx="3.525" cy="3.525" r="3.525" transform="translate(8.477 7.109)" fill="#b1b1b1"/>
  <g id="Group_6622" data-name="Group 6622" transform="translate(0 0)">
    <g id="Group_6739" data-name="Group 6739">
      <g id="Group_6738" data-name="Group 6738">
        <path id="Subtraction_5" data-name="Subtraction 5" d="M18.32,28H0V0H22.92V15.914H21.28V1.641H16.364V5.487H6.556V1.641H1.641V26.359H18.32V28ZM8.2,1.641V3.846h6.526V1.641Zm9.971,22.076H8.115V22.076H18.169v1.641Zm-11.694,0H4.752V22.076H6.474v1.641Zm11.694-3.5H8.115V18.576H18.169v1.641Zm-11.694,0H4.752V18.576H6.474v1.641Zm11.694-3.5H8.115V15.076H18.169v1.641Zm-11.694,0H4.752V15.076H6.474v1.641Z" fill="#b1b1b1"/>
        <g id="Group_6737" data-name="Group 6737" transform="translate(18.973 17.223)">
          <g id="nurse_1_" data-name="nurse (1)" transform="translate(0 0)">
            <g id="Group_6736" data-name="Group 6736" transform="translate(0 0)">
              <g id="Group_6744" data-name="Group 6744">
                <path id="Path_21490" data-name="Path 21490" d="M138.85,14.95a1.976,1.976,0,1,0-2.05-1.976A2.016,2.016,0,0,0,138.85,14.95Z" transform="translate(-134.637 -11)" fill="#b1b1b1"/>
                <path id="Path_21491" data-name="Path 21491" d="M16.831,267.807h-.481v.464a.351.351,0,1,1-.7,0v-.464h-.481a.351.351,0,1,1,0-.7h.481v-.463a.351.351,0,1,1,.7,0v.463h.481a.351.351,0,1,1,0,.7Zm-.4-2.707a2.791,2.791,0,0,1-2.445,0A3.936,3.936,0,0,0,11,268.806a.35.35,0,0,0,.351.351h7.724a.35.35,0,0,0,.351-.351A3.936,3.936,0,0,0,16.435,265.1Z" transform="translate(-11 -260.731)" fill="#b1b1b1"/>
              </g>
            </g>
          </g>
        </g>
      </g>
    </g>
  </g>
  <path id="path" d="M378.047,874.345l-1.379,1.379,1.379,1.379-.345.345-1.379-1.379-1.379,1.379-.345-.345,1.379-1.379-1.379-1.379.345-.345,1.379,1.379L377.7,874Z" transform="translate(-364.349 -865.115)" fill="#fff"/>
</svg>
