<svg id="Group_7273" data-name="Group 7273" xmlns="http://www.w3.org/2000/svg" xmlns:xlink="http://www.w3.org/1999/xlink" width="28.398" height="29.043" viewBox="0 0 28.398 29.043">
  <defs>
    <linearGradient id="linear-gradient" x1="0.5" x2="0.5" y2="1" gradientUnits="objectBoundingBox">
      <stop offset="0" stop-color="#97b866"/>
      <stop offset="1" stop-color="#82ae40"/>
    </linearGradient>
    <linearGradient id="linear-gradient-2" x1="0.5" x2="0.5" y2="1" gradientUnits="objectBoundingBox">
      <stop offset="0" stop-color="#fec107"/>
      <stop offset="1" stop-color="#ffa827"/>
    </linearGradient>
  </defs>
  <path id="Path_1833" data-name="Path 1833" d="M120.653,258.9a.659.659,0,0,0-.659-.659h-2.3a.659.659,0,0,0-.659.659v2.3a.659.659,0,0,0,.659.659h2.3a.659.659,0,0,0,.659-.659v-2.3Z" transform="translate(-110.394 -242.878)" fill="url(#linear-gradient)"/>
  <path id="Path_1834" data-name="Path 1834" d="M217.288,258.9a.659.659,0,0,0-.659-.659h-2.3a.659.659,0,0,0-.659.659v2.3a.659.659,0,0,0,.659.659h2.3a.659.659,0,0,0,.659-.659Z" transform="translate(-201.28 -242.878)" fill="#8f9091"/>
  <path id="Path_1835" data-name="Path 1835" d="M313.916,258.9a.659.659,0,0,0-.659-.659h-2.3a.659.659,0,0,0-.659.659v2.3a.659.659,0,0,0,.659.659h2.3a.659.659,0,0,0,.659-.659Z" transform="translate(-292.159 -242.878)" fill="#b1b1b1"/>
  <path id="Path_1836" data-name="Path 1836" d="M120.653,355.534a.659.659,0,0,0-.659-.659h-2.3a.659.659,0,0,0-.659.659v2.3a.659.659,0,0,0,.659.659h2.3a.659.659,0,0,0,.659-.659v-2.3Z" transform="translate(-110.394 -333.762)" fill="url(#linear-gradient-2)"/>
  <path id="Path_1837" data-name="Path 1837" d="M217.288,355.534a.659.659,0,0,0-.659-.659h-2.3a.659.659,0,0,0-.659.659v2.3a.659.659,0,0,0,.659.659h2.3a.659.659,0,0,0,.659-.659Z" transform="translate(-201.28 -333.762)" fill="#b1b1b1"/>
  <path id="Path_1838" data-name="Path 1838" d="M313.916,355.534a.659.659,0,0,0-.659-.659h-2.3a.659.659,0,0,0-.659.659v2.3a.659.659,0,0,0,.659.659h2.3a.659.659,0,0,0,.659-.659v-2.3Z" transform="translate(-292.159 -333.762)" fill="#b1b1b1"/>
  <path id="Path_1839" data-name="Path 1839" d="M31.282,54.155v3.513a2.869,2.869,0,0,1-2.876,2.868H26.592A2.884,2.884,0,0,1,23.7,57.668V54.142H15.522v3.526a2.884,2.884,0,0,1-2.893,2.868H10.815a2.869,2.869,0,0,1-2.876-2.868V54.155a2.615,2.615,0,0,0-2.528,2.6V77.345a2.616,2.616,0,0,0,2.6,2.619H31.206a2.619,2.619,0,0,0,2.6-2.619V56.756A2.615,2.615,0,0,0,31.282,54.155Zm-.843,21.908a1.126,1.126,0,0,1-1.125,1.125H9.857a1.126,1.126,0,0,1-1.125-1.125V65.428A1.126,1.126,0,0,1,9.857,64.3H29.314a1.126,1.126,0,0,1,1.125,1.126V76.062Z" transform="translate(-5.411 -50.921)" fill="#b1b1b1"/>
  <path id="Path_1840" data-name="Path 1840" d="M80.536,7.731h1.794a.986.986,0,0,0,.986-.986V.986A.986.986,0,0,0,82.331,0H80.536a.986.986,0,0,0-.986.986V6.745A.986.986,0,0,0,80.536,7.731Z" transform="translate(-75.139 0)" fill="#b1b1b1"/>
  <path id="Path_1841" data-name="Path 1841" d="M345.444,7.731h1.794a.986.986,0,0,0,.986-.986V.986A.986.986,0,0,0,347.239,0h-1.794a.986.986,0,0,0-.986.986V6.745A.986.986,0,0,0,345.444,7.731Z" transform="translate(-324.287 0)" fill="#b1b1b1"/>
</svg>
