<svg id="Group_2410" data-name="Group 2410" xmlns="http://www.w3.org/2000/svg" width="30.398" height="28.971" viewBox="0 0 30.398 28.971">
  <path id="Path_18777" data-name="Path 18777" d="M120.438,258.861a.619.619,0,0,0-.62-.619h-2.163a.619.619,0,0,0-.62.619v2.163a.62.62,0,0,0,.62.62h2.163a.62.62,0,0,0,.62-.62v-2.163Z" transform="translate(-110.79 -243.794)" fill="#b1b1b1"/>
  <path id="Path_18778" data-name="Path 18778" d="M217.072,258.861a.619.619,0,0,0-.619-.619H214.29a.619.619,0,0,0-.62.619v2.163a.62.62,0,0,0,.62.62h2.163a.62.62,0,0,0,.619-.62Z" transform="translate(-202.019 -243.794)" fill="#b1b1b1"/>
  <path id="Path_18779" data-name="Path 18779" d="M313.7,258.861a.619.619,0,0,0-.62-.619h-2.163a.62.62,0,0,0-.62.619v2.163a.62.62,0,0,0,.62.62h2.163a.62.62,0,0,0,.62-.62Z" transform="translate(-293.31 -243.794)" fill="#b1b1b1"/>
  <path id="Path_18780" data-name="Path 18780" d="M120.438,355.495a.619.619,0,0,0-.62-.62h-2.163a.619.619,0,0,0-.62.62v2.163a.62.62,0,0,0,.62.62h2.163a.62.62,0,0,0,.62-.62v-2.163Z" transform="translate(-110.79 -335.021)" fill="#b1b1b1"/>
  <path id="Path_18781" data-name="Path 18781" d="M217.072,355.495a.619.619,0,0,0-.619-.62H214.29a.619.619,0,0,0-.62.62v2.163a.62.62,0,0,0,.62.62h2.163a.62.62,0,0,0,.619-.62Z" transform="translate(-202.019 -335.021)" fill="#b1b1b1"/>
  <path id="Path_18783" data-name="Path 18783" d="M29.739,54.154v3.3a2.7,2.7,0,0,1-2.7,2.7H25.329a2.712,2.712,0,0,1-2.721-2.7V54.142H14.919v3.315a2.712,2.712,0,0,1-2.72,2.7H10.492a2.7,2.7,0,0,1-2.7-2.7v-3.3A2.459,2.459,0,0,0,5.411,56.6V75.961a2.46,2.46,0,0,0,2.448,2.462H29.668a2.463,2.463,0,0,0,2.448-2.462V56.6A2.459,2.459,0,0,0,29.739,54.154Zm-.792,20.6a1.058,1.058,0,0,1-1.058,1.058H9.592a1.058,1.058,0,0,1-1.058-1.058v-10A1.058,1.058,0,0,1,9.592,63.7h18.3a1.058,1.058,0,0,1,1.058,1.059v10Z" transform="translate(-5.411 -51.113)" fill="#b1b1b1"/>
  <path id="Path_18784" data-name="Path 18784" d="M80.477,7.27h1.687a.927.927,0,0,0,.927-.927V.927A.927.927,0,0,0,82.165,0H80.477a.927.927,0,0,0-.927.927V6.343A.927.927,0,0,0,80.477,7.27Z" transform="translate(-75.402)" fill="#b1b1b1"/>
  <path id="Path_18785" data-name="Path 18785" d="M345.385,7.27h1.687A.927.927,0,0,0,348,6.343V.927A.927.927,0,0,0,347.073,0h-1.687a.927.927,0,0,0-.927.927V6.343A.927.927,0,0,0,345.385,7.27Z" transform="translate(-325.49)" fill="#b1b1b1"/>
  <circle id="Ellipse_135" data-name="Ellipse 135" cx="4.917" cy="4.917" r="4.917" transform="translate(20.564 19.137)" fill="#fff"/>
  <path id="Path_18788" data-name="Path 18788" d="M2.74,0a2.74,2.74,0,1,0,2.74,2.74A2.743,2.743,0,0,0,2.74,0ZM.5,2.74A2.236,2.236,0,0,1,4.2,1.043L1.043,4.2A2.227,2.227,0,0,1,.5,2.74ZM2.74,4.977A2.226,2.226,0,0,1,1.41,4.538L4.538,1.41a2.236,2.236,0,0,1-1.8,3.567Z" transform="translate(22.754 21.328)" fill="#e44949"/>
</svg>
