<svg xmlns="http://www.w3.org/2000/svg" width="29.291" height="31.163" viewBox="0 0 29.291 31.163">
  <g id="Group_12122" data-name="Group 12122" transform="translate(16461.143 7274.144)">
    <g id="history" transform="translate(-16445.043 -7255.551)">
      <path id="Path_21545" data-name="Path 21545" d="M275.482,172.228v3.328a.475.475,0,0,0,.139.336L278,178.273l.673-.673-2.242-2.241v-3.131Z" transform="translate(-269.156 -169.352)" fill="#b1b1b1"/>
      <path id="Path_21546" data-name="Path 21546" d="M7.421,34.445a5.776,5.776,0,0,0-5.706,4.947H0l2.061,2.061,2.061-2.061H2.548a4.939,4.939,0,1,1,.971,3.867l-.65.507a5.772,5.772,0,1,0,4.551-9.322Z" transform="translate(0 -34.445)" fill="#b1b1b1"/>
    </g>
    <g id="add_3_" data-name="add (3)" transform="translate(-16461.143 -7274.144)">
      <g id="Group_12121" data-name="Group 12121" transform="translate(0)">
        <g id="Group_12120" data-name="Group 12120">
          <path id="Path_21758" data-name="Path 21758" d="M21.378,15.637a14.749,14.749,0,0,0-1.75-.735A8.4,8.4,0,0,0,22.8,8.278,8.109,8.109,0,0,0,14.889,0a8.109,8.109,0,0,0-7.91,8.278,8.4,8.4,0,0,0,3.177,6.629,14.931,14.931,0,0,0-4.874,2.8A16.022,16.022,0,0,0,.076,26.7a3.826,3.826,0,0,0,.719,3.1A3.454,3.454,0,0,0,3.53,31.163H17.855a1.219,1.219,0,0,0,0-2.435H3.53a1.166,1.166,0,0,1-.93-.463A1.316,1.316,0,0,1,2.353,27.2a13.023,13.023,0,0,1,12.227-10.65q.153.006.308.006t.311-.006a12.211,12.211,0,0,1,5.179,1.287,1.141,1.141,0,0,0,1.55-.577A1.242,1.242,0,0,0,21.378,15.637Zm-6.205-1.524-.284,0-.281,0a5.741,5.741,0,0,1-5.3-5.836,5.724,5.724,0,0,1,5.583-5.843,5.724,5.724,0,0,1,5.583,5.843A5.741,5.741,0,0,1,15.173,14.113Z" transform="translate(0)" fill="#b1b1b1"/>
        </g>
      </g>
    </g>
  </g>
</svg>
