<svg id="report" xmlns="http://www.w3.org/2000/svg" width="28.463" height="37.83" viewBox="0 0 28.463 37.83">
  <g id="Group_7133" data-name="Group 7133" transform="translate(0 0)">
    <g id="Group_7112" data-name="Group 7112" transform="translate(0 0)">
      <g id="Group_7111" data-name="Group 7111">
        <path id="Path_21526" data-name="Path 21526" d="M83.845,2.522H75.8V.63A.625.625,0,0,0,75.182,0h-9.9a.625.625,0,0,0-.619.63h0V2.522H56.619a.625.625,0,0,0-.619.63h0V37.2a.625.625,0,0,0,.618.63H83.844a.625.625,0,0,0,.619-.63h0V3.152A.625.625,0,0,0,83.845,2.522ZM65.9,1.261h8.663V5.044H65.9ZM83.226,36.569H57.238V3.783h7.425V5.674a.625.625,0,0,0,.618.63h9.9a.625.625,0,0,0,.619-.63h0V3.783h7.425Z" transform="translate(-56 0)" fill="#b1b1b1"/>
      </g>
    </g>
    <g id="Group_7114" data-name="Group 7114" transform="translate(2.233 30.123)">
      <g id="Group_7113" data-name="Group 7113" transform="translate(0 0)">
        <rect id="Rectangle_3987" data-name="Rectangle 3987" width="14" height="1.019" fill="#b1b1b1"/>
      </g>
    </g>
    <g id="Group_7116" data-name="Group 7116" transform="translate(17.233 30.123)">
      <g id="Group_7115" data-name="Group 7115" transform="translate(0 0)">
        <rect id="Rectangle_3988" data-name="Rectangle 3988" width="9" height="1.019" fill="#b1b1b1"/>
      </g>
    </g>
    <g id="Group_7118" data-name="Group 7118" transform="translate(2.233 32.161)">
      <g id="Group_7117" data-name="Group 7117" transform="translate(0 0)">
        <rect id="Rectangle_3989" data-name="Rectangle 3989" width="24" height="1.019" transform="translate(0 0)" fill="#b1b1b1"/>
      </g>
    </g>
    <g id="Group_7120" data-name="Group 7120" transform="translate(2.233 34.199)">
      <g id="Group_7119" data-name="Group 7119" transform="translate(0 0)">
        <rect id="Rectangle_3990" data-name="Rectangle 3990" width="10" height="1.019" transform="translate(0 0)" fill="#b1b1b1"/>
      </g>
    </g>
    <g id="Group_7122" data-name="Group 7122" transform="translate(13.233 34.199)">
      <g id="Group_7121" data-name="Group 7121" transform="translate(0 0)">
        <rect id="Rectangle_3991" data-name="Rectangle 3991" width="13" height="1.019" transform="translate(0 0)" fill="#b1b1b1"/>
      </g>
    </g>
    <g id="Group_7124" data-name="Group 7124" transform="translate(2.475 18.284)">
      <g id="Group_7123" data-name="Group 7123">
        <path id="Path_21527" data-name="Path 21527" d="M92.332,232H88.619a.625.625,0,0,0-.619.63h0v8.2a.625.625,0,0,0,.618.631h3.713a.625.625,0,0,0,.619-.63h0v-8.2A.625.625,0,0,0,92.332,232Zm-.619,8.2H89.238v-6.935h2.475Z" transform="translate(-88 -232)" fill="#b1b1b1"/>
      </g>
    </g>
    <g id="Group_7126" data-name="Group 7126" transform="translate(8.663 15.762)">
      <g id="Group_7125" data-name="Group 7125" transform="translate(0)">
        <path id="Path_21528" data-name="Path 21528" d="M172.332,200h-3.713a.625.625,0,0,0-.619.63h0v10.718a.625.625,0,0,0,.618.63h3.713a.625.625,0,0,0,.619-.63h0V200.631A.625.625,0,0,0,172.332,200Zm-.619,10.718h-2.475v-9.457h2.475Z" transform="translate(-168 -200)" fill="#b1b1b1"/>
      </g>
    </g>
    <g id="Group_7128" data-name="Group 7128" transform="translate(14.85 13.24)">
      <g id="Group_7127" data-name="Group 7127" transform="translate(0)">
        <path id="Path_21529" data-name="Path 21529" d="M252.332,168h-3.713a.625.625,0,0,0-.619.63h0v13.24a.625.625,0,0,0,.618.631h3.713a.625.625,0,0,0,.619-.63h0v-13.24A.625.625,0,0,0,252.332,168Zm-.619,13.24h-2.475V169.261h2.475Z" transform="translate(-248 -168)" fill="#b1b1b1"/>
      </g>
    </g>
    <g id="Group_7130" data-name="Group 7130" transform="translate(21.038 10.718)">
      <g id="Group_7129" data-name="Group 7129">
        <path id="Path_21530" data-name="Path 21530" d="M332.332,136h-3.713a.625.625,0,0,0-.619.63h0v15.762a.625.625,0,0,0,.618.63h3.713a.625.625,0,0,0,.619-.63h0V136.63A.625.625,0,0,0,332.332,136Zm-.619,15.762h-2.475v-14.5h2.475Z" transform="translate(-328 -136)" fill="#b1b1b1"/>
      </g>
    </g>
    <g id="Group_7132" data-name="Group 7132" transform="translate(2.766 6.317)">
      <g id="Group_7131" data-name="Group 7131" transform="translate(0)">
        <path id="Path_21531" data-name="Path 21531" d="M114.244,80.156l-6.188,1.261a.613.613,0,0,0-.222.094l-5.413,3.677H97.04a.608.608,0,0,0-.328.1l-4.95,3.152.656,1.069,4.8-3.057h5.392a.612.612,0,0,0,.343-.106l5.467-3.714,6.068-1.236Z" transform="translate(-91.762 -80.156)" fill="#b1b1b1"/>
      </g>
    </g>
  </g>
</svg>
