<svg xmlns="http://www.w3.org/2000/svg" width="32.716" height="32.717" viewBox="0 0 32.716 32.717">
  <g id="referral" transform="translate(-1 -1)">
    <path id="Path_21688" data-name="Path 21688" d="M42.4,35.681a4.764,4.764,0,0,0,1.515-2.127h.277a2.1,2.1,0,0,0,1.055-3.928v-2.4A4.226,4.226,0,0,0,41.026,23H37.86a4.226,4.226,0,0,0-4.221,4.221v2.4a2.1,2.1,0,0,0,1.055,3.928h.277a4.767,4.767,0,0,0,1.515,2.127A5.806,5.806,0,0,0,31,41.469v2.111a.528.528,0,0,0,.528.528h15.83a.528.528,0,0,0,.528-.528V41.469A5.806,5.806,0,0,0,42.4,35.681ZM37.078,36.72l1.657,2.072L37.128,40.4,36.4,36.74c.135-.012.27-.021.408-.021Zm3.377,0-1.013,1.266L38.43,36.72Zm1.352,0h.274c.138,0,.273.009.407.021L41.757,40.4l-1.607-1.607ZM44.192,32.5h-.031a4.715,4.715,0,0,0,.031-.528V30.387a1.055,1.055,0,1,1,0,2.111Zm-9.5-5.277a3.169,3.169,0,0,1,3.166-3.166h3.166a3.169,3.169,0,0,1,3.166,3.166v2.111H42.081a1.056,1.056,0,0,1-1.055-1.055V26.166H39.97v.528a2.641,2.641,0,0,1-2.638,2.638H34.694Zm0,5.277a1.055,1.055,0,0,1,0-2.111V31.97a4.715,4.715,0,0,0,.031.528Zm1.055-.528V30.387h1.583a3.685,3.685,0,0,0,2.8-1.295,2.113,2.113,0,0,0,1.946,1.295h1.055V31.97a3.694,3.694,0,1,1-7.387,0ZM46.83,43.052H32.055V41.469a4.756,4.756,0,0,1,3.306-4.523l.926,4.627a.528.528,0,0,0,.365.4A.539.539,0,0,0,36.8,42a.528.528,0,0,0,.373-.155l2.265-2.265,2.265,2.265a.528.528,0,0,0,.891-.27l.926-4.627a4.758,4.758,0,0,1,3.306,4.524Z" transform="translate(-14.17 -10.391)" fill="#b1b1b1"/>
    <path id="Path_21689" data-name="Path 21689" d="M17.886,21.579V19.469A5.806,5.806,0,0,0,12.4,13.681a4.764,4.764,0,0,0,1.515-2.127h.277a2.1,2.1,0,0,0,1.055-3.928v-2.4A4.226,4.226,0,0,0,11.026,1H7.86A4.226,4.226,0,0,0,3.638,5.221v2.4a2.1,2.1,0,0,0,1.055,3.928h.277a4.767,4.767,0,0,0,1.515,2.127A5.806,5.806,0,0,0,1,19.469v2.111a.528.528,0,0,0,.528.528h15.83A.528.528,0,0,0,17.886,21.579ZM7.078,14.72l1.657,2.072L7.128,18.4,6.4,14.74c.135-.012.27-.021.408-.021Zm3.377,0L9.443,15.985,8.43,14.72Zm1.352,0h.274c.138,0,.273.009.407.021L11.757,18.4l-1.607-1.607ZM14.192,10.5h-.031a4.714,4.714,0,0,0,.031-.528V8.387a1.055,1.055,0,1,1,0,2.111Zm-9.5-5.277A3.169,3.169,0,0,1,7.86,2.055h3.166a3.169,3.169,0,0,1,3.166,3.166V7.332H12.081a1.056,1.056,0,0,1-1.055-1.055V4.166H9.97v.528A2.641,2.641,0,0,1,7.332,7.332H4.694Zm0,5.277a1.055,1.055,0,0,1,0-2.111V9.97a4.715,4.715,0,0,0,.031.528ZM5.749,9.97V8.387H7.332a3.685,3.685,0,0,0,2.8-1.295,2.113,2.113,0,0,0,1.946,1.295h1.055V9.97a3.694,3.694,0,0,1-7.387,0ZM16.83,21.052H2.055V19.469a4.756,4.756,0,0,1,3.306-4.523l.926,4.627a.528.528,0,0,0,.365.4A.539.539,0,0,0,6.8,20a.528.528,0,0,0,.373-.155l2.265-2.265,2.265,2.265a.528.528,0,0,0,.891-.27l.926-4.627a4.758,4.758,0,0,1,3.306,4.524Z" fill="#b1b1b1"/>
    <path id="Path_21690" data-name="Path 21690" d="M18.609,52.5a5.284,5.284,0,0,1-5.25-4.749h1.557a.528.528,0,0,0,.373-.9l-3.694-3.694a.527.527,0,0,0-.746,0L7.155,46.848a.528.528,0,0,0,.373.9H9.133a6.34,6.34,0,0,0,6.31,5.8h3.166a.528.528,0,1,0,0-1.055Zm-8.443-5.277a.528.528,0,0,0-.528-.528H8.8l2.42-2.42,2.42,2.42H12.8a.528.528,0,0,0-.528.528,6.332,6.332,0,0,0,2.818,5.266A5.284,5.284,0,0,1,10.166,47.221Z" transform="translate(-2.834 -19.838)" fill="#b1b1b1"/>
  </g>
</svg>
