<svg id="Group_6746" data-name="Group 6746" xmlns="http://www.w3.org/2000/svg" width="36.769" height="37.576" viewBox="0 0 36.769 37.576">
  <g id="Group_6617" data-name="Group 6617" transform="translate(0 0)">
    <g id="Group_6739" data-name="Group 6739">
      <g id="Group_6738" data-name="Group 6738">
        <path id="Subtraction_5" data-name="Subtraction 5" d="M24.586,37.576H0V0H30.759V21.357h-2.2V2.2h-6.6V7.364H8.8V2.2H2.2V35.375H24.586v2.2ZM11,2.2v2.96h8.758V2.2ZM24.382,24.488H10.89v-2.2H24.382v2.2Zm-15.694,0H6.377v-2.2H8.689v2.2Zm15.694-4.7H10.89v-2.2H24.382v2.2Zm-15.694,0H6.377v-2.2H8.689v2.2Zm15.694-4.7H10.89v-2.2H24.382v2.2Zm-15.694,0H6.377v-2.2H8.689v2.2Z" fill="#b1b1b1"/>
        <g id="Group_6737" data-name="Group 6737" transform="translate(25.462 23.113)">
          <g id="nurse_1_" data-name="nurse (1)" transform="translate(0 0)">
            <g id="Group_6736" data-name="Group 6736">
              <g id="Group_6744" data-name="Group 6744">
                <path id="Path_21490" data-name="Path 21490" d="M139.551,16.3a2.652,2.652,0,1,0-2.751-2.651A2.705,2.705,0,0,0,139.551,16.3Z" transform="translate(-133.897 -11)" fill="#b1b1b1"/>
                <path id="Path_21491" data-name="Path 21491" d="M18.825,268.732h-.646v.623a.471.471,0,0,1-.942,0v-.623h-.646a.471.471,0,1,1,0-.941h.646v-.621a.471.471,0,1,1,.942,0v.621h.646a.471.471,0,1,1,0,.941Zm-.531-3.632a3.745,3.745,0,0,1-3.281,0A5.282,5.282,0,0,0,11,270.073a.47.47,0,0,0,.471.471H21.836a.47.47,0,0,0,.471-.471A5.282,5.282,0,0,0,18.294,265.1Z" transform="translate(-11 -259.236)" fill="#b1b1b1"/>
              </g>
            </g>
          </g>
        </g>
      </g>
    </g>
  </g>
</svg>
